<svg xmlns="http://www.w3.org/2000/svg" viewBox="0 0 24 24" aria-hidden="true">
  <path fill="#000" d="M7.75 2h8.5A5.76 5.76 0 0 1 22 7.75v8.5A5.76 5.76 0 0 1 16.25 22h-8.5A5.76 5.76 0 0 1 2 16.25v-8.5A5.76 5.76 0 0 1 7.75 2Zm0 1.7A4.06 4.06 0 0 0 3.7 7.75v8.5A4.06 4.06 0 0 0 7.75 20.3h8.5a4.06 4.06 0 0 0 4.05-4.05v-8.5a4.06 4.06 0 0 0-4.05-4.05h-8.5Zm8.95 1.27a1.12 1.12 0 1 1 0 2.24 1.12 1.12 0 0 1 0-2.24ZM12 7a5 5 0 1 1 0 10 5 5 0 0 1 0-10Zm0 1.7A3.3 3.3 0 1 0 12 15.3a3.3 3.3 0 0 0 0-6.6Z"/>
</svg>
