<?xml version="1.0" encoding="UTF-8"?>
<svg id="_レイヤー_2" data-name="レイヤー 2" xmlns="http://www.w3.org/2000/svg" viewBox="0 0 213.5 214.24">
  <defs>
    <style>
      .cls-1 {
        fill: #fff;
      }
    </style>
  </defs>
  <g id="_レイヤー_1-2" data-name="レイヤー 1">
    <path class="cls-1" d="M213.5,47.34c0-26.14-21.19-47.34-47.34-47.34-23.65,0-43.25,17.34-46.77,40.01-9.31-3.27-19.32-5.06-29.74-5.06C40.14,34.95,0,75.08,0,124.59s40.14,89.65,89.65,89.65c15.47,0,30.03-3.92,42.73-10.82,7.52-4.09,37.59,6.45,37.59,6.45,0,0-8.71-30.97-5.25-36.25,9.22-14.09,14.58-30.93,14.58-49.02,0-10.73-1.89-21.03-5.35-30.57,22.44-3.71,39.55-23.2,39.55-46.69Z"/>
  </g>
</svg>