<?xml version="1.0" encoding="UTF-8"?>
<svg id="_レイヤー_1" data-name="レイヤー 1" xmlns="http://www.w3.org/2000/svg" viewBox="0 0 280 280">
  <defs>
    <style>
      .cls-1 {
        fill: none;
      }
    </style>
  </defs>
  <path d="M265.96,85.22c0-26.14-21.19-47.34-47.34-47.34-23.65,0-43.25,17.34-46.77,40.01-9.31-3.27-19.32-5.06-29.74-5.06-49.51,0-89.65,40.14-89.65,89.65s40.14,89.65,89.65,89.65c15.47,0,30.03-3.92,42.73-10.82,7.52-4.09,37.59,6.45,37.59,6.45,0,0-8.71-30.97-5.25-36.25,9.22-14.09,14.58-30.93,14.58-49.02,0-10.73-1.89-21.03-5.35-30.57,22.44-3.71,39.55-23.2,39.55-46.69Z"/>
  <g>
    <circle class="cls-1" cx="142.05" cy="162.54" r="101.19"/>
    <path d="M58.51,219.08c1.44,2.14,1.99,4.28,1.64,6.4-.35,2.12-1.48,4.15-3.41,6.07s-4.52,3.67-7.78,5.23c-3.16,1.51-6.07,2.42-8.73,2.72s-5.05-.02-7.15-.96c-2.11-.94-3.9-2.51-5.38-4.71-.58-.86-1.06-1.8-1.45-2.82-.39-1.02-.68-1.99-.87-2.9-.19-.91-.27-1.64-.25-2.17.02-.58.25-1.16.7-1.72.45-.57,1.12-.89,2-.97.81-.05,1.43.13,1.85.56.42.43.63.98.62,1.66-.02.44-.02.99,0,1.64s.11,1.33.25,2.02.4,1.31.77,1.86c1.02,1.51,2.3,2.55,3.83,3.1,1.53.55,3.26.66,5.19.33,1.93-.34,4.01-1.08,6.25-2.23,2.55-1.29,4.55-2.55,5.99-3.77,1.44-1.22,2.34-2.41,2.69-3.56.35-1.15.17-2.25-.55-3.31-.73-1.09-1.57-1.9-2.52-2.44-.95-.54-1.93-.88-2.94-1.01-1.01-.13-1.97-.13-2.87,0-.73.11-1.35,0-1.84-.33-.49-.33-.77-.86-.84-1.58-.08-.7.12-1.38.63-2.03.51-.66,1.37-1.05,2.59-1.17,1.19-.11,2.48.03,3.88.41s2.77,1.04,4.12,1.98c1.35.94,2.54,2.18,3.58,3.72Z"/>
    <path d="M49.38,202.54c.41,1.02.49,1.98.25,2.88-.24.9-.7,1.72-1.4,2.47-.69.74-1.53,1.39-2.52,1.94-.99.55-2.03.98-3.11,1.29-1.89.53-3.6.69-5.13.48-1.53-.21-2.83-.71-3.9-1.52-1.07-.81-1.85-1.83-2.35-3.08-.12-.31-.22-.65-.29-1.03-.07-.38-.11-.79-.13-1.22-.02-.43,0-.88.03-1.36l-.28-.16c-.23-.13-.43-.31-.59-.54s-.3-.48-.41-.75c-.26-.64-.28-1.29-.08-1.94.2-.65.72-1.09,1.55-1.33l12.66-3.57c.71-.2,1.34-.11,1.88.26.54.38.93.86,1.16,1.44.25.63.27,1.24.05,1.83-.22.59-.73.99-1.52,1.21l-.14.04c.55.1,1.11.25,1.67.43.57.19,1.08.46,1.54.81.46.35.81.82,1.04,1.41ZM41.22,206.34c.63-.18,1.19-.38,1.68-.6.49-.22.9-.46,1.21-.72.32-.26.53-.53.65-.81.11-.28.12-.56,0-.84-.15-.37-.43-.67-.84-.92-.42-.24-.99-.41-1.73-.49-.74-.08-1.66-.07-2.78.03-1.11.11-2.43.32-3.96.65l-.1.02c-.1.6-.13,1.12-.09,1.55.04.44.13.82.26,1.13.2.49.54.86,1.02,1.11.48.25,1.12.37,1.89.36.78-.01,1.71-.17,2.79-.47Z"/>
    <path d="M43.74,189.15c.14.89-.03,1.55-.51,1.97-.47.42-1.07.65-1.77.68l-13.11.63c-.73.03-1.31-.17-1.73-.62-.42-.45-.7-1.06-.82-1.84-.12-.8,0-1.42.4-1.86.39-.43.95-.66,1.68-.68h.3c-1.2-.74-2.11-1.5-2.72-2.28-.61-.79-.98-1.61-1.12-2.48-.17-1.1,0-2.05.49-2.87.49-.82,1.32-1.42,2.48-1.81-1.4-.8-2.46-1.6-3.17-2.41-.71-.81-1.14-1.69-1.29-2.63-.23-1.49.16-2.7,1.17-3.64,1.01-.93,2.55-1.45,4.63-1.54l9.35-.45c.56-.03,1.12.1,1.68.39.56.29.9.87,1.04,1.74.15.96-.02,1.64-.49,2.05s-1.07.64-1.77.68l-9.35.55c-.61.04-1.05.13-1.33.27-.28.14-.4.36-.35.64.03.21.22.5.55.87.34.37.88.81,1.63,1.3.75.5,1.77,1.04,3.06,1.63l6.85-.3c.56-.03,1.12.1,1.68.4.56.3.9.88,1.04,1.75.15.97-.02,1.66-.49,2.07-.48.41-1.07.63-1.78.67l-9.37.4c-.61.03-1.05.11-1.33.26-.28.15-.39.36-.35.65.03.21.21.5.54.87.33.37.86.8,1.6,1.29.74.49,1.73,1.03,2.99,1.61l7.04-.25c.34-.02.7.01,1.07.1s.7.3.99.62c.29.33.49.85.6,1.55Z"/>
    <path d="M41.3,157.42c-.07,1.14-.36,2.13-.87,2.98-.51.84-1.2,1.52-2.07,2.03-.87.51-1.89.84-3.07,1-1.17.16-2.46.12-3.87-.12-1.89-.32-3.48-.89-4.77-1.71s-2.26-1.83-2.9-3.05c-.64-1.21-.91-2.58-.81-4.09.08-1.19.35-2.21.81-3.09.46-.87,1.1-1.57,1.91-2.1.81-.53,1.77-.87,2.89-1.03,1.12-.16,2.39-.12,3.8.11,1.42.25,2.69.64,3.83,1.17s2.1,1.19,2.89,1.97c.79.78,1.38,1.67,1.77,2.67s.54,2.08.47,3.25ZM32.23,158.37c.62.13,1.2.19,1.73.2.53,0,1-.06,1.41-.18.4-.12.73-.31.96-.55.24-.24.37-.54.39-.89.04-.57-.16-1.09-.58-1.56-.43-.47-1.04-.88-1.83-1.22-.79-.34-1.71-.62-2.74-.81-.63-.13-1.19-.19-1.68-.18-.49,0-.91.07-1.25.2-.34.13-.61.31-.8.55-.19.24-.29.54-.31.89-.05.83.32,1.57,1.13,2.2.81.63,2,1.09,3.58,1.37Z"/>
    <path d="M43.56,140.65c-.17.75-.43,1.46-.77,2.13-.35.67-.71,1.26-1.1,1.77-.39.51-.73.9-1.02,1.17-.63.54-1.29.87-1.97,1-.69.13-1.31-.11-1.88-.73-.55-.61-.78-1.21-.68-1.82.1-.6.45-1.16,1.06-1.66.26-.22.61-.62,1.04-1.19s.72-1.16.85-1.77c.06-.25.06-.47,0-.67s-.18-.33-.38-.37c-.12-.03-.25-.02-.4.03-.15.05-.37.2-.67.45-.3.25-.74.69-1.32,1.32-1.42,1.52-2.66,2.51-3.71,2.96-1.05.46-2.14.56-3.28.3-1.55-.35-2.67-1.16-3.38-2.44s-.85-2.86-.42-4.75c.15-.67.41-1.38.77-2.14.36-.76.9-1.5,1.61-2.19.78-.73,1.54-1.14,2.27-1.25.73-.11,1.35.12,1.87.67.45.5.62,1.06.51,1.71s-.51,1.28-1.21,1.93c-.36.34-.65.73-.89,1.19-.24.45-.4.89-.5,1.31-.08.37-.07.66.04.9.11.23.27.37.48.42.27.06.65-.16,1.14-.66s1.02-1.05,1.58-1.64c.44-.51.9-.97,1.36-1.39.47-.42.96-.77,1.48-1.05.52-.28,1.08-.47,1.69-.56.61-.09,1.26-.05,1.97.1,1.27.28,2.21.81,2.82,1.58.62.77.99,1.64,1.12,2.6.13.97.1,1.88-.09,2.75Z"/>
    <path d="M52.4,115.54c-.37.68-.88,1.12-1.53,1.31-.65.2-1.27.1-1.85-.31l-21.65-14.73-2.98,5.51c-.38.71-.89,1.18-1.52,1.41-.63.23-1.22.19-1.76-.13-.56-.33-.94-.77-1.15-1.32-.21-.55-.14-1.15.22-1.81l8.94-16.53c.36-.66.86-1.12,1.51-1.39.65-.27,1.26-.25,1.83.06.55.3.93.73,1.13,1.29.2.56.11,1.2-.28,1.91l-3.49,6.46,21.89,14.92c.45.31.78.75.99,1.33.21.58.11,1.25-.3,2.01Z"/>
    <path d="M61.29,102.03c-.69.86-1.48,1.41-2.38,1.65-.9.24-1.85.24-2.83.01s-1.97-.64-2.93-1.23c-.97-.59-1.86-1.27-2.67-2.06-1.39-1.38-2.38-2.78-2.96-4.21-.58-1.43-.79-2.81-.62-4.14.17-1.33.67-2.51,1.51-3.56.21-.26.46-.51.75-.76.3-.25.63-.49.99-.72.37-.23.76-.45,1.19-.65v-.32c0-.27.06-.53.17-.78s.27-.49.45-.73c.43-.54.98-.89,1.64-1.03s1.31.08,1.92.69l9.39,9.22c.53.52.76,1.11.71,1.76-.06.66-.28,1.23-.67,1.72-.42.53-.95.85-1.57.95-.62.1-1.22-.14-1.8-.72l-.11-.11c.19.53.34,1.08.45,1.67.12.59.14,1.16.06,1.74-.08.57-.31,1.11-.71,1.61ZM53.93,96.83c.47.46.92.84,1.35,1.16s.85.55,1.23.69c.38.14.73.2,1.02.16.3-.04.54-.18.73-.42.25-.31.37-.71.38-1.19,0-.48-.14-1.06-.43-1.75-.29-.68-.76-1.48-1.41-2.39s-1.49-1.95-2.53-3.12l-.07-.07c-.57.21-1.04.44-1.39.69-.36.26-.64.52-.86.78-.33.41-.48.89-.46,1.44.02.55.23,1.15.63,1.82.4.67,1,1.4,1.8,2.19Z"/>
    <path d="M80.22,102.48c-.68.6-1.33.81-1.95.65-.62-.16-1.15-.54-1.58-1.15l-15.98-22.57c-.49-.69-.73-1.42-.7-2.17.03-.75.32-1.37.87-1.86.55-.48,1.11-.72,1.68-.72.58,0,1.1.27,1.57.8l.04.05c-.06-.53-.07-1.08-.05-1.63.03-.55.15-1.09.36-1.61.21-.52.55-.99,1.03-1.41.83-.73,1.69-1.14,2.61-1.23s1.82.04,2.72.41c.9.37,1.76.91,2.57,1.6s1.52,1.49,2.14,2.37c1.14,1.61,1.88,3.2,2.24,4.78.36,1.58.37,3.03.02,4.36-.35,1.33-1.02,2.43-2.02,3.31-.34.3-.77.56-1.28.78-.52.22-1.11.34-1.77.37l7.9,11.25c.39.56.56,1.18.5,1.86-.06.68-.36,1.26-.93,1.76ZM70.02,83.69c.75.07,1.34.03,1.76-.13.42-.16.76-.35,1.02-.58.4-.35.61-.82.63-1.41.02-.59-.12-1.28-.44-2.06-.31-.78-.8-1.65-1.45-2.58-.33-.5-.67-.92-1.01-1.26s-.67-.61-1-.78c-.32-.18-.63-.27-.91-.26s-.55.11-.79.32c-.31.27-.52.62-.64,1.07-.12.44-.12,1.01.02,1.69s.42,1.5.86,2.47c.44.97,1.07,2.12,1.89,3.45l.05.09Z"/>
    <path d="M99.59,70.64c-.7.31-1.37.35-2.01.11s-1.06-.7-1.28-1.37l-8.23-24.86-5.72,2.56c-.73.33-1.42.39-2.07.19s-1.08-.59-1.32-1.17c-.25-.6-.28-1.18-.11-1.75.17-.56.59-1,1.28-1.3l17.15-7.68c.68-.31,1.36-.37,2.04-.18.68.18,1.15.57,1.42,1.16.26.57.29,1.14.12,1.71-.18.57-.64,1.02-1.38,1.35l-6.7,3,8.3,25.15c.17.51.16,1.07-.03,1.66s-.67,1.06-1.46,1.41Z"/>
    <path d="M114.85,65.34c-1.07.27-2.03.22-2.89-.14s-1.61-.93-2.25-1.72c-.64-.79-1.17-1.71-1.58-2.76-.41-1.05-.7-2.14-.86-3.25-.27-1.94-.19-3.66.22-5.15.41-1.49,1.09-2.71,2.03-3.66.94-.95,2.07-1.58,3.37-1.91.32-.08.67-.13,1.06-.15.39-.02.79,0,1.22.04.43.04.88.11,1.34.21l.19-.25c.16-.21.37-.38.61-.51s.51-.23.8-.3c.67-.17,1.32-.11,1.93.18.62.29.98.86,1.11,1.71l1.83,13.03c.1.73-.07,1.34-.52,1.83s-.97.8-1.58.95c-.66.16-1.27.1-1.82-.2-.55-.3-.88-.85-.99-1.67l-.02-.15c-.17.53-.39,1.06-.66,1.6-.26.54-.6,1.01-1.01,1.42s-.92.69-1.54.84ZM112.19,56.73c.09.65.21,1.23.37,1.75s.34.95.55,1.3c.22.35.45.6.71.75.26.15.54.19.84.12.38-.1.72-.33,1.02-.71.3-.38.54-.93.72-1.65.18-.72.3-1.64.34-2.75.05-1.12.01-2.45-.1-4.01v-.1c-.59-.19-1.1-.28-1.54-.3-.44-.02-.83.02-1.16.1-.51.13-.93.41-1.24.86-.31.45-.52,1.06-.61,1.83-.09.77-.06,1.72.09,2.83Z"/>
    <path d="M129.98,62.05c-.85.09-1.51-.09-1.97-.55-.46-.46-.69-1.16-.7-2.09l-.14-27.92c0-.69.21-1.29.64-1.81.42-.52,1.02-.83,1.78-.91.9-.1,1.56.1,2.01.58s.66,1.1.67,1.84l.15,27.96c0,.86-.22,1.54-.67,2.04-.45.5-1.04.79-1.76.87Z"/>
    <path d="M138.85,61.26c-.86-.02-1.49-.28-1.88-.8-.4-.52-.54-1.24-.42-2.16l3.44-27.71c.09-.68.38-1.25.87-1.72s1.12-.69,1.89-.67c.9.02,1.54.3,1.92.84.38.54.52,1.18.43,1.91l-2.01,16.4,4.16-2.84c.48-.33.9-.57,1.28-.72.37-.15.75-.21,1.13-.18.75.04,1.32.31,1.72.83s.57,1.06.51,1.62c-.03.36-.14.75-.34,1.15-.19.4-.51.76-.94,1.06l-4.65,3.16,4.43,5.81c.35.46.56.87.6,1.25s.04.75-.04,1.12c-.12.58-.42,1.03-.89,1.36-.47.33-.99.48-1.55.47-.47,0-.89-.11-1.26-.3-.37-.19-.75-.56-1.15-1.11l-3.93-5.37-.52,4.03c-.1.86-.41,1.5-.93,1.94-.51.44-1.13.65-1.86.63Z"/>
    <path d="M159.56,63.19c-.76-.14-1.48-.36-2.17-.68-.69-.32-1.29-.66-1.82-1.02-.53-.36-.93-.69-1.22-.97-.56-.6-.92-1.25-1.08-1.93-.16-.68.06-1.32.64-1.91.58-.58,1.18-.83,1.79-.76s1.18.4,1.71.98c.23.25.64.58,1.23.99s1.19.66,1.81.77c.25.04.47.04.67-.02s.32-.19.36-.4c.02-.12,0-.25-.05-.39s-.21-.36-.48-.65c-.27-.29-.73-.71-1.38-1.26-1.58-1.35-2.62-2.55-3.13-3.57s-.65-2.12-.45-3.26c.28-1.56,1.04-2.72,2.29-3.48,1.25-.76,2.82-.97,4.73-.63.67.12,1.4.34,2.18.67.78.33,1.53.83,2.26,1.51.76.75,1.21,1.49,1.35,2.21s-.06,1.36-.59,1.9c-.48.47-1.04.67-1.68.59-.64-.08-1.3-.46-1.98-1.12-.35-.34-.76-.62-1.22-.84s-.91-.36-1.33-.44c-.37-.07-.67-.04-.89.08-.23.12-.36.28-.4.5-.05.27.19.64.71,1.11.52.47,1.09.97,1.71,1.5.53.42,1.01.85,1.45,1.3.44.45.81.92,1.12,1.43.31.51.52,1.06.63,1.66.12.6.11,1.26-.02,1.98-.23,1.28-.71,2.24-1.45,2.89-.74.65-1.59,1.06-2.55,1.24s-1.88.19-2.75.03Z"/>
  </g>
</svg>